<svg width="14" height="14" viewBox="0 0 14 14" fill="none" xmlns="http://www.w3.org/2000/svg">
<path d="M4.08325 8.75H5.24992C5.24992 9.38 6.04909 9.91667 6.99992 9.91667C7.95075 9.91667 8.74992 9.38 8.74992 8.75C8.74992 8.10833 8.14325 7.875 6.85992 7.56583C5.62325 7.25667 4.08325 6.87167 4.08325 5.25C4.08325 4.20583 4.94075 3.31917 6.12492 3.02167V1.75H7.87492V3.02167C9.05909 3.31917 9.91659 4.20583 9.91659 5.25H8.74992C8.74992 4.62 7.95075 4.08333 6.99992 4.08333C6.04909 4.08333 5.24992 4.62 5.24992 5.25C5.24992 5.89167 5.85659 6.125 7.13992 6.43417C8.37659 6.74333 9.91659 7.12833 9.91659 8.75C9.91659 9.79417 9.05909 10.6808 7.87492 10.9783V12.25H6.12492V10.9783C4.94075 10.6808 4.08325 9.79417 4.08325 8.75Z" fill="#1252AE"/>
</svg>
