<svg width="14" height="14" viewBox="0 0 14 14" fill="none" xmlns="http://www.w3.org/2000/svg">
<path d="M6.99992 2.33335C8.28325 2.33335 9.33325 3.38335 9.33325 4.66669C9.33325 5.89169 8.10825 7.87502 6.99992 9.27502C5.89159 7.81669 4.66659 5.89169 4.66659 4.66669C4.66659 3.38335 5.71659 2.33335 6.99992 2.33335ZM6.99992 1.16669C5.07492 1.16669 3.49992 2.74169 3.49992 4.66669C3.49992 7.29169 6.99992 11.0834 6.99992 11.0834C6.99992 11.0834 10.4999 7.23335 10.4999 4.66669C10.4999 2.74169 8.92492 1.16669 6.99992 1.16669ZM6.99992 3.50002C6.35825 3.50002 5.83325 4.02502 5.83325 4.66669C5.83325 5.30835 6.35825 5.83335 6.99992 5.83335C7.64159 5.83335 8.16658 5.30835 8.16658 4.66669C8.16658 4.02502 7.64159 3.50002 6.99992 3.50002ZM11.6666 11.0834C11.6666 12.3667 9.56659 13.4167 6.99992 13.4167C4.43325 13.4167 2.33325 12.3667 2.33325 11.0834C2.33325 10.325 3.03325 9.68335 4.14159 9.21669L4.49159 9.74169C3.90825 10.0334 3.49992 10.3834 3.49992 10.7917C3.49992 11.6084 5.07492 12.25 6.99992 12.25C8.92492 12.25 10.4999 11.6084 10.4999 10.7917C10.4999 10.3834 10.0916 10.0334 9.44992 9.74169L9.79992 9.21669C10.9666 9.68335 11.6666 10.325 11.6666 11.0834Z" fill="#1252AE"/>
</svg>
